# xmcd
#
# Track frame offsets:
#	150
#	4610
#	17850
#	35177
#	55862
#	82607
#	100532
#	113740
#	132385
#	146205
#	166395
#	188490
#	201735
#	219065
#	239742
#	257680
#	270900
#	289560
#	303362
#	323555
#
# Disc length: 4606 seconds
#
# Revision: 1
# Processed by: cddbd v1.5.1PL0 Copyright (c) Steve Scherf et al.
# Submitted via: CDex 1.50Beta5
#
DISCID=1011fc14
DTITLE=てれび戦士 - NHK天才てれびくんワイド 天てれ大入り袋
DYEAR=1900
DGENRE=(Doyo)
TTITLE0=スーパースピードスター
TTITLE1=Can do it!
TTITLE2=ゴォ!
TTITLE3=恋は早いもの勝ち
TTITLE4=スリラー Thriller
TTITLE5=ハッピーマン
TTITLE6=君の声がする
TTITLE7=運命'99
TTITLE8=はるかな旅へ
TTITLE9=世界中の全ての色
TTITLE10=ドキドキのち晴れ
TTITLE11=Can do it!(カラオケ)
TTITLE12=ゴォ!(カラオケ)
TTITLE13=恋は早いもの勝ち(カラオケ)
TTITLE14=ハッピーマン(カラオケ)
TTITLE15=君の声がする(カラオケ)
TTITLE16=運命'99(カラオケ)
TTITLE17=はるかな旅へ(カラオケ)
TTITLE18=世界中の全ての色(カラオケ)
TTITLE19=ドキドキのち晴れ(カラオケ)
EXTD=
EXTT0=
EXTT1=
EXTT2=
EXTT3=
EXTT4=
EXTT5=
EXTT6=
EXTT7=
EXTT8=
EXTT9=
EXTT10=
EXTT11=
EXTT12=
EXTT13=
EXTT14=
EXTT15=
EXTT16=
EXTT17=
EXTT18=
EXTT19=
PLAYORDER=
